<?xml version="1.0" encoding="utf-8"?>
<!-- Generator: Adobe Illustrator 27.0.0, SVG Export Plug-In . SVG Version: 6.00 Build 0)  -->
<svg version="1.1" id="Layer_1" xmlns="http://www.w3.org/2000/svg" xmlns:xlink="http://www.w3.org/1999/xlink" x="0px" y="0px"
	 viewBox="0 0 1200 149" style="enable-background:new 0 0 1200 149;" xml:space="preserve">
<style type="text/css">
	.st0{fill:#29C0BE;}
	.st1{fill:#FFFFFF;}
</style>
<g id="BANKERA_Wordmark_White_00000003100411324551932900000004782969773330748857_">
	<path id="Path_2_00000067231702339609117420000003789138688223443336_" class="st0" d="M104.2,73.3c13-4.7,20.1-18.9,20.1-33.1
		c0-23.7-19-39-50.9-39H0V149h78.2c33.2,0,53.3-16.6,53.3-41.4C131.5,92.2,122,76.9,104.2,73.3z M36.7,31.9h30.8
		c14.2,0,21.3,4.7,21.3,14.2s-7.1,15.4-21.3,15.4H36.7L36.7,31.9z M36.7,118.3V89.9h36.7c14.2,0,21.3,4.7,21.3,13
		c0,9.5-7.1,15.4-21.3,15.4L36.7,118.3z M268.9,124.2l9.5,24.8h39.1L254.7,0h-34.4l-62.8,149h39.1l9.5-24.8L268.9,124.2z
		 M255.9,92.2H218l19-48.5L255.9,92.2z M491.6,1.2h-36.7v84l-71.1-84h-28.4V149h36.7V68.6l71.1,80.4h28.4L491.6,1.2z M598.2,94.6
		l41.5,54.4h45l-61.6-82.8l56.9-65h-43.8l-59.2,67.4V1.2h-36.7V149h36.7v-29.6L598.2,94.6z M757,33.1h74.6V1.2H720.2V149h111.4
		v-31.9H757v-26h65.2V60.3H757V33.1z M934.7,106.4l32,42.6h43.8l-37.9-49.7c17.8-9.5,28.4-24.8,28.4-46.1c0-31.9-24.9-52-61.6-52
		h-64V149h36.7v-42.6L934.7,106.4z M912.1,73.3v-39h27.2c14.2,0,24.9,7.1,24.9,18.9s-10.7,20.1-24.9,20.1L912.1,73.3z M1151.4,124.2
		l9.5,24.8h39.1L1137.2,0h-34.4l-64,149h40.3l9.5-24.8L1151.4,124.2z M1138.4,92.2h-37.9l19-48.5L1138.4,92.2z"/>
</g>
</svg>
