<?xml version="1.0" encoding="utf-8"?>
<svg width="955px" height="300px" viewBox="0 0 955 300" version="1.1" xmlns:xlink="http://www.w3.org/1999/xlink" xmlns="http://www.w3.org/2000/svg">
  <desc>Created with Lunacy</desc>
  <defs>
    <path d="M0 0L954.12 0L954.12 299.74L0 299.74L0 0Z" id="path_1" />
    <clipPath id="mask_1">
      <use xlink:href="#path_1" />
    </clipPath>
  </defs>
  <g id="lsd_fullLogo">
    <path d="M0 0L954.12 0L954.12 299.74L0 299.74L0 0Z" id="Background" fill="none" stroke="none" />
    <g clip-path="url(#mask_1)">
      <g id="Group">
        <g id="Group" transform="translate(0 6.190002)">
          <path d="M80.72 195.19C63.92 195.19 47.71 190.23 33.84 180.86C20.31 171.72 9.81 158.96 3.46 143.96C2.12 140.79 0.96 137.47 0 134.04L30.07 134.04C31.39 136.98 32.93 139.77 34.67 142.35C40.73 151.33 49.19 158.3 59.13 162.5C65.97 165.39 73.25 166.86 80.75 166.86C91.88 166.85 102.61 163.58 111.8 157.38C120.78 151.32 127.75 142.86 131.95 132.92C134.84 126.08 136.31 118.81 136.31 111.3C136.3 105.32 135.39 99.78 133.51 94.38C131.79 89.47 129.33 84.82 125.99 80.16C120.51 72.52 112.35 64.77 101.05 56.47C100.58 56.12 99.37 55.26 98.03 54.3C96.02 52.86 93.22 54.3 93.22 56.77L93.22 96.83L64.89 96.83L64.89 0L161.72 0L161.72 28.33L119.78 28.33C116.87 28.33 115.62 32.03 117.94 33.79C126.04 39.91 138.9 50.48 147.67 61.81C154.63 70.8 159.37 80.66 162.05 90.87C163.78 97.42 164.65 104.29 164.65 111.29C164.66 128.11 159.7 144.33 150.32 158.2C141.18 171.73 128.42 182.23 113.42 188.58C103.07 192.96 92.09 195.18 80.78 195.18L80.72 195.18L80.72 195.19Z" transform="translate(6.540039 98.35999)" id="Shape" fill="#2B2C6B" stroke="none" />
          <path d="M45.14 166.86L2.93002 166.86L2.93002 195.19L71.43 195.19L71.43 144.32L67.93 141.84C66.19 140.61 64.86 139.65 63.6 138.72C52.29 130.43 44.13 122.68 38.66 115.03C35.31 110.37 32.85 105.72 31.14 100.81C29.26 95.41 28.35 89.88 28.34 83.89C28.34 76.39 29.81 69.11 32.7 62.27C36.9 52.33 43.87 43.88 52.85 37.81C62.04 31.62 72.77 28.34 83.9 28.33C91.4 28.33 98.68 29.8 105.52 32.69C115.46 36.89 123.91 43.86 129.98 52.84C131.72 55.41 133.26 58.2 134.58 61.15L164.65 61.15C163.69 57.73 162.53 54.4 161.19 51.23C154.84 36.23 144.34 23.48 130.81 14.33C116.95 4.95 100.74 0 83.88 0C72.57 0 61.59 2.22 51.24 6.6C36.24 12.95 23.48 23.45 14.34 36.98C4.95002 50.87 -0.00998491 67.09 1.50911e-05 83.91C1.50911e-05 90.9 0.870015 97.77 2.60001 104.33C5.28001 114.54 10.14 124.3 16.98 133.39C24.43 143.28 38.44 154.81 47.01 161.43C49.3 163.19 48.04 166.86 45.14 166.86L45.14 166.86Z" id="Shape" fill="#52B9A7" stroke="none" />
        </g>
        <g id="Group" transform="translate(256.0701 0)">
          <path d="M0 113.49L0 0L21.46 0L21.46 94.47L66.18 94.47L66.18 113.49L0 113.49L0 113.49Z" transform="translate(8.609985 7.81)" id="Shape" fill="#2B2C6B" stroke="none" />
          <path d="M2.85001 21.14C4.75 23.09 7.86002 24.07 12.2 24.07C16.42 24.07 19.51 23.09 21.47 21.14C23.42 19.19 24.4 16.7 24.4 13.66L24.4 10.41C24.4 7.38 23.42 4.88 21.47 2.93C19.52 0.98 16.43 0 12.2 0C7.86002 0 4.75 0.98 2.85001 2.93C0.950012 4.88 0 7.38 0 10.41L0 13.66C0 16.7 0.950012 19.19 2.85001 21.14ZM22.6 36.42L1.79001 36.42L1.79001 121.3L22.6 121.3L22.6 36.42Z" transform="translate(90.23999 0)" id="Shape" fill="#2B2C6B" fill-rule="evenodd" stroke="none" />
          <path d="M23.17 85.6C28.1 87.71 33.71 88.77 40 88.77C47.91 88.77 54.87 87.38 60.89 84.63C66.91 81.85 71.65 78.02 75.12 73.13L63.9 60.57C61.3 63.9 58.35 66.65 55.04 68.8C51.74 70.96 47.48 72.03 42.28 72.03C35.45 72.03 30.3 70.17 26.83 66.46C23.36 62.75 21.63 57.83 21.63 51.69L21.63 49.59L78.05 49.59L78.05 42.76C78.05 36.91 77.26 31.41 75.69 26.26C74.12 21.11 71.76 16.58 68.62 12.68C65.48 8.78 61.47 5.68 56.59 3.41C51.71 1.14 45.96 0 39.35 0C33.17 0 27.64 1.06 22.76 3.17C17.88 5.28 13.76 8.26 10.4 12.11C7.03998 15.96 4.47 20.59 2.67999 26.01C0.890015 31.43 0 37.5 0 44.22C0 51.05 0.920013 57.21 2.76001 62.68Q5.53502 70.885 10.65 76.66C14.06 80.51 18.24 83.49 23.17 85.6ZM26.5 21.12C29.75 17.43 34.14 15.59 39.67 15.59C45.09 15.59 49.24 17.41 52.11 21.04C54.9799 24.68 56.4199 29.42 56.4199 35.27L56.4199 36.73L21.62 36.73L21.62 35.43C21.62 29.58 23.25 24.81 26.5 21.12Z" transform="translate(131.22 34.49)" id="Shape" fill="#2B2C6B" fill-rule="evenodd" stroke="none" />
          <path d="M34.47 108.13C27.32 108.13 21.87 106.27 18.13 102.54C14.39 98.81 12.52 93.48 12.52 86.56L12.52 40L0 40L0 23.25L6.5 23.25C9.64001 23.25 11.78 22.52 12.92 21.05C14.06 19.59 14.63 17.39 14.63 14.46L14.63 0L33.33 0L33.33 23.25L50.73 23.25L50.73 40L33.33 40L33.33 91.38L49.43 91.38L49.43 108.13L34.47 108.13L34.47 108.13Z" transform="translate(219.67 13.17)" id="Shape" fill="#2B2C6B" stroke="none" />
          <path d="M51.71 70.75L50.9 70.75C50.14 72.92 49.14 74.95 47.89 76.85C46.64 78.75 45.0699 80.46 43.17 81.97C41.27 83.49 39 84.68 36.34 85.55C33.68 86.42 30.62 86.85 27.15 86.85C18.3699 86.85 11.65 83.98 6.98999 78.23C2.33002 72.49 0 64.3 0 53.68L0 0.00999451L20.81 0.00999451L20.81 51.56C20.81 57.41 21.95 61.89 24.22 64.97C26.5 68.06 30.1299 69.6 35.11 69.6C37.17 69.6 39.2 69.33 41.21 68.79C43.21 68.25 44.98 67.41 46.49 66.27C48.01 65.13 49.25 63.72 50.23 62.04C51.21 60.36 51.69 58.38 51.69 56.1L51.69 0L72.5 0L72.5 84.88L51.69 84.88L51.69 70.75L51.71 70.75Z" transform="translate(287.48 36.41)" id="Shape" fill="#2B2C6B" stroke="none" />
          <path d="M28.29 84.88L0 0L20.49 0L32.36 36.59L40.65 66.83L41.79 66.83L50.08 36.59L61.6299 3.8147e-06L81.47 3.8147e-06L53.0099 84.88L28.29 84.88L28.29 84.88Z" transform="translate(373.99 36.42001)" id="Shape" fill="#2B2C6B" stroke="none" />
          <path d="M23.01 85.69C27.83 87.75 33.28 88.78 39.35 88.78C45.42 88.78 50.89 87.74 55.77 85.69C60.65 83.64 64.79 80.66 68.21 76.75C71.6301 72.84 74.26 68.16 76.1 62.68C77.9401 57.2 78.86 51.05 78.86 44.22C78.86 37.39 77.9401 31.27 76.1 25.85C74.25 20.43 71.62 15.8 68.21 11.95C64.79 8.11 60.65 5.15 55.77 3.09C50.9 1.03 45.42 0 39.35 0C33.28 0 27.83 1.03 23.01 3.09C18.1801 5.15 14.06 8.1 10.65 11.95C7.22998 15.8 4.60004 20.43 2.76001 25.85C0.919983 31.27 0 37.39 0 44.22C0 51.05 0.919983 57.21 2.76001 62.68Q5.53506 70.9 10.65 76.75Q15.78 82.6 23.01 85.69ZM52.36 66.99C49.21 70.35 44.8801 72.03 39.35 72.03C33.9301 72.03 29.64 70.35 26.5001 66.99C23.3501 63.63 21.7801 58.69 21.7801 52.19L21.7801 36.42C21.7801 30.03 23.35 25.15 26.5001 21.79C29.65 18.43 33.9301 16.75 39.35 16.75C44.8801 16.75 49.21 18.43 52.36 21.79C55.51 25.15 57.08 30.02 57.08 36.42L57.08 52.19C57.08 58.7 55.5001 63.63 52.36 66.99Z" transform="translate(463.58 34.48)" id="Shape" fill="#2B2C6B" fill-rule="evenodd" stroke="none" />
          <path d="M35.12 88.8C26.99 88.8 20.16 87.42 14.63 84.65C9.09998 81.89 4.22003 78.06 0 73.19L12.68 60.83C15.82 64.41 19.27 67.23 23.01 69.29C26.75 71.35 31.06 72.38 35.94 72.38C40.92 72.38 44.53 71.51 46.75 69.78C48.97 68.05 50.08 65.66 50.08 62.63C50.08 60.14 49.29 58.16 47.72 56.69C46.15 55.23 43.46 54.23 39.67 53.68L31.21 52.54C21.99 51.35 14.97 48.72 10.15 44.65C5.33002 40.58 2.91003 34.65 2.91003 26.84C2.91003 22.72 3.67004 19.01 5.19006 15.7C6.71008 12.39 8.87006 9.58 11.6901 7.24C14.5101 4.91 17.8901 3.12 21.85 1.87C25.8101 0.619999 30.22 0 35.1 0C39.22 0 42.8801 0.299999 46.08 0.889999C49.28 1.49 52.18 2.35 54.78 3.49C57.3801 4.63 59.76 6.04 61.93 7.72C64.1 9.4 66.2101 11.27 68.2701 13.33L56.09 25.54C53.6 22.94 50.61 20.77 47.15 19.04C43.68 17.31 39.8899 16.44 35.77 16.44C31.22 16.44 27.9399 17.25 25.9299 18.88C23.9199 20.51 22.9199 22.62 22.9199 25.22C22.9199 28.04 23.7599 30.18 25.4399 31.64C27.1199 33.1 29.96 34.16 33.9799 34.81L42.5999 35.95C60.9199 38.55 70.0799 46.9 70.0799 60.99C70.0799 65.11 69.2399 68.88 67.5599 72.29C65.8799 75.7 63.5199 78.63 60.4899 81.07C57.4499 83.51 53.7899 85.41 49.5099 86.76C45.23 88.12 40.43 88.8 35.12 88.8L35.12 88.8Z" transform="translate(553.5 34.46)" id="Shape" fill="#2B2C6B" stroke="none" />
          <path d="M35.12 88.8C26.99 88.8 20.16 87.42 14.63 84.65C9.10001 81.89 4.22 78.06 0 73.19L12.68 60.83C15.82 64.41 19.27 67.23 23.01 69.29C26.75 71.35 31.06 72.38 35.94 72.38C40.92 72.38 44.53 71.51 46.75 69.78C48.97 68.05 50.08 65.66 50.08 62.63C50.08 60.14 49.29 58.16 47.72 56.69C46.15 55.23 43.46 54.23 39.67 53.68L31.21 52.54C21.99 51.35 14.97 48.72 10.15 44.65C5.32999 40.58 2.91 34.65 2.91 26.84C2.91 22.72 3.67001 19.01 5.19 15.7C6.70999 12.39 8.87 9.58 11.69 7.23999C14.51 4.90999 17.89 3.12 21.85 1.87C25.81 0.62999 30.22 0 35.1 0C39.22 0 42.88 0.300003 46.08 0.889999C49.28 1.49001 52.18 2.35001 54.78 3.49001C57.38 4.63 59.76 6.04001 61.93 7.72C64.1 9.39999 66.21 11.27 68.27 13.33L56.07 25.53C53.58 22.93 50.59 20.76 47.13 19.03C43.66 17.3 39.87 16.43 35.75 16.43C31.2 16.43 27.92 17.24 25.91 18.87C23.9 20.5 22.9 22.61 22.9 25.21C22.9 28.03 23.74 30.17 25.42 31.63C27.1 33.09 29.94 34.15 33.96 34.8L42.58 35.94C60.9 38.54 70.06 46.89 70.06 60.98C70.06 65.1 69.22 68.87 67.54 72.28C65.86 75.69 63.5 78.62 60.47 81.06C57.43 83.5 53.77 85.4 49.49 86.75C45.22 88.12 40.43 88.8 35.12 88.8L35.12 88.8Z" transform="translate(0 200.56)" id="Shape" fill="#2B2C6B" stroke="none" />
          <path d="M34.47 108.14C27.32 108.14 21.87 106.28 18.13 102.55C14.39 98.82 12.52 93.49 12.52 86.57L12.52 40.01L0 40.01L0 23.26L6.5 23.26C9.64001 23.26 11.78 22.53 12.92 21.06C14.06 19.6 14.63 17.4 14.63 14.47L14.63 0L33.33 0L33.33 23.25L50.73 23.25L50.73 40L33.33 40L33.33 91.38L49.43 91.38L49.43 108.13L34.47 108.13L34.47 108.14Z" transform="translate(80.49002 179.27)" id="Shape" fill="#2B2C6B" stroke="none" />
          <path d="M57.65 82.85C60.3 85.5 63.91 86.83 68.46 86.83L68.46 86.84L80 86.84L80 70.09L71.54 70.09L71.54 30.18C71.54 20.45 68.56 12.98 62.6 7.78999C56.64 2.60001 47.91 0 36.42 0C27.86 0 20.97 1.5 15.77 4.5C10.57 7.5 6.39001 11.45 3.25 16.36L15.61 27.48C17.67 24.55 20.19 22.03 23.17 19.92C26.15 17.81 30.08 16.75 34.96 16.75C40.49 16.75 44.49 18.05 46.99 20.65C49.48 23.25 50.73 26.94 50.73 31.71L50.73 37.89L36.26 37.89C24.66 37.89 15.72 40.02 9.42999 44.29C3.14001 48.56 0 55.07 0 63.82C0 71.39 2.32999 77.44 6.98999 81.98C11.65 86.52 18.32 88.79 26.99 88.79C33.39 88.79 38.75 87.4 43.09 84.64C47.43 81.88 50.3 77.73 51.71 72.2L52.69 72.2C53.34 76.65 54.99 80.19 57.65 82.85ZM45.86 70.59C42.61 72.64 38.65 73.66 33.99 73.66C29.87 73.66 26.7 72.82 24.48 71.16C22.26 69.49 21.15 66.94 21.15 63.49L21.15 60.75C21.15 53.86 26.57 50.41 37.41 50.41L50.74 50.41L50.74 61.55C50.74 65.53 49.11 68.54 45.86 70.59Z" transform="translate(143.24 200.58)" id="Shape" fill="#2B2C6B" fill-rule="evenodd" stroke="none" />
          <path d="M34.47 108.14C27.3199 108.14 21.87 106.28 18.13 102.55C14.39 98.82 12.52 93.49 12.52 86.57L12.52 40.01L0 40.01L0 23.26L6.5 23.26C9.64001 23.26 11.78 22.53 12.92 21.06C14.06 19.6 14.63 17.4 14.63 14.47L14.63 0L33.33 0L33.33 23.25L50.73 23.25L50.73 40L33.33 40L33.33 91.38L49.43 91.38L49.43 108.13L34.47 108.13L34.47 108.14Z" transform="translate(232.19 179.27)" id="Shape" fill="#2B2C6B" stroke="none" />
          <path d="M2.84998 21.14C4.74994 23.09 7.85992 24.07 12.2 24.07C16.4299 24.07 19.52 23.09 21.47 21.14C23.42 19.19 24.4 16.7 24.4 13.66L24.4 10.41C24.4 7.37999 23.42 4.87999 21.47 2.92999C19.52 0.979996 16.4299 0 12.2 0C7.85999 0 4.75 0.979996 2.84998 2.92999C0.950012 4.87999 0 7.37999 0 10.41L0 13.66C0 16.7 0.949951 19.19 2.84998 21.14ZM22.5999 36.43L1.78992 36.43L1.78992 121.31L22.5999 121.31L22.5999 36.43Z" transform="translate(299.1801 166.1)" id="Shape" fill="#2B2C6B" fill-rule="evenodd" stroke="none" />
          <path d="M35.12 88.8C26.99 88.8 20.16 87.42 14.63 84.65C9.10004 81.88 4.22003 78.06 0 73.19L12.68 60.83C15.82 64.41 19.27 67.23 23.01 69.29C26.75 71.35 31.06 72.38 35.94 72.38C40.92 72.38 44.53 71.51 46.75 69.78C48.97 68.05 50.08 65.66 50.08 62.63C50.08 60.14 49.29 58.16 47.72 56.69C46.15 55.23 43.46 54.23 39.67 53.68L31.21 52.54C21.9901 51.35 14.97 48.72 10.15 44.65C5.33002 40.58 2.91003 34.65 2.91003 26.84C2.91003 22.72 3.67004 19.01 5.19006 15.7C6.71008 12.39 8.87006 9.58 11.6901 7.23999C14.5101 4.90999 17.8901 3.12 21.85 1.87C25.8101 0.62999 30.22 0 35.1 0C39.22 0 42.8801 0.300003 46.08 0.889999C49.28 1.49001 52.18 2.35001 54.78 3.49001C57.38 4.63 59.76 6.04001 61.9301 7.72C64.1 9.39999 66.2101 11.27 68.2701 13.33L56.0701 25.53C53.5801 22.93 50.5901 20.76 47.1301 19.03C43.6601 17.3 39.8701 16.43 35.7501 16.43C31.2001 16.43 27.92 17.24 25.91 18.87C23.9 20.5 22.9 22.61 22.9 25.21C22.9 28.03 23.7401 30.17 25.42 31.63C27.1 33.09 29.9401 34.15 33.96 34.8L42.58 35.94C60.9 38.54 70.06 46.89 70.06 60.98C70.06 65.1 69.22 68.87 67.54 72.28C65.86 75.69 63.5 78.62 60.47 81.06C57.43 83.5 53.78 85.4 49.49 86.75C45.22 88.12 40.43 88.8 35.12 88.8L35.12 88.8Z" transform="translate(338.54 200.56)" id="Shape" fill="#2B2C6B" stroke="none" />
          <path d="M34.47 108.14C27.32 108.14 21.8701 106.28 18.13 102.55C14.39 98.82 12.52 93.49 12.52 86.57L12.52 40.01L0 40.01L0 23.26L6.5 23.26C9.64001 23.26 11.78 22.53 12.92 21.06C14.06 19.6 14.63 17.4 14.63 14.47L14.63 0L33.33 0L33.33 23.25L50.73 23.25L50.73 40L33.33 40L33.33 91.38L49.43 91.38L49.43 108.13L34.47 108.13L34.47 108.14Z" transform="translate(419.02 179.27)" id="Shape" fill="#2B2C6B" stroke="none" />
          <path d="M2.84998 21.14C4.74994 23.09 7.85992 24.07 12.2 24.07C16.4299 24.07 19.52 23.09 21.47 21.14C23.42 19.19 24.4 16.7 24.4 13.66L24.4 10.41C24.4 7.37999 23.42 4.87999 21.47 2.92999C19.52 0.979996 16.4299 0 12.2 0C7.85999 0 4.75 0.979996 2.84998 2.92999C0.950012 4.87999 0 7.37999 0 10.41L0 13.66C0 16.7 0.949951 19.19 2.84998 21.14ZM22.5999 36.43L1.78992 36.43L1.78992 121.31L22.5999 121.31L22.5999 36.43Z" transform="translate(486.0101 166.1)" id="Shape" fill="#2B2C6B" fill-rule="evenodd" stroke="none" />
          <path d="M0.00994873 0L20.8199 0L20.8199 72.52L21.6299 72.52L32.8499 57.24L51.8699 35.45L75.45 35.45L46.1799 68.3L78.5399 120.33L53.8199 120.33L32.03 82.28L20.81 94.48L20.81 120.33L0 120.33L0 0L0.00994873 0Z" transform="translate(532.67 167.08)" id="Shape" fill="#2B2C6B" stroke="none" />
          <path d="M57.65 82.85C60.3 85.5 63.91 86.83 68.46 86.83L68.46 86.84L80.0001 86.84L80.0001 70.09L71.54 70.09L71.54 30.18C71.54 20.45 68.5601 12.98 62.6 7.78999C56.64 2.60001 47.91 0 36.42 0C27.86 0 20.97 1.5 15.77 4.5C10.57 7.5 6.39002 11.45 3.25 16.36L15.61 27.48C17.67 24.55 20.19 22.03 23.17 19.92C26.15 17.81 30.08 16.75 34.96 16.75C40.49 16.75 44.49 18.05 46.99 20.65C49.48 23.25 50.73 26.94 50.73 31.71L50.73 37.89L36.26 37.89C24.66 37.89 15.72 40.02 9.42999 44.29C3.14001 48.56 0 55.07 0 63.82C0 71.39 2.33002 77.44 6.98999 81.98C11.65 86.52 18.32 88.79 26.99 88.79C33.39 88.79 38.7499 87.4 43.09 84.64C47.4299 81.88 50.3 77.73 51.71 72.2L52.6899 72.2C53.34 76.65 54.99 80.19 57.65 82.85ZM45.8599 70.59C42.6099 72.64 38.6499 73.66 33.9899 73.66C29.8699 73.66 26.7 72.82 24.4799 71.16C22.2599 69.49 21.1499 66.94 21.1499 63.49L21.1499 60.75C21.1499 53.86 26.5699 50.41 37.4099 50.41L50.7399 50.41L50.7399 61.55C50.7399 65.53 49.1099 68.54 45.8599 70.59Z" transform="translate(618.04 200.58)" id="Shape" fill="#2B2C6B" fill-rule="evenodd" stroke="none" />
        </g>
      </g>
    </g>
  </g>
</svg>