<?xml version="1.0" encoding="utf-8"?>
<!-- Generator: Adobe Illustrator 26.5.0, SVG Export Plug-In . SVG Version: 6.00 Build 0)  -->
<svg version="1.1" id="Layer_1" xmlns="http://www.w3.org/2000/svg" xmlns:xlink="http://www.w3.org/1999/xlink" x="0px" y="0px"
	 viewBox="0 0 1009.498 422.5644" enable-background="new 0 0 1009.498 422.5644" xml:space="preserve">
<path id="Logo" fill="#FFFFFF" d="M752.835,176.952h-27.5508l42.9556,99.8348l-2.0737,4.7399
	c-5.0362,11.2574-11.5536,17.4785-24.2922,17.4785c-3.2587,0-7.1099-0.5925-10.3686-1.4812v21.3297
	c4.1475,1.185,8.2949,1.4812,13.3311,1.4812c23.6996,0,38.2157-17.4785,47.3993-39.9932l41.7706-103.3897h-27.5508l-25.1808,73.4689
	L752.835,176.952z M664.85,251.6059c0-11.2573,14.5161-15.9973,26.9584-16.886l10.9611-0.5925v5.9249
	c0,10.6648-9.1836,23.1072-22.5146,23.1072C671.96,263.1595,664.85,259.6046,664.85,251.6059z M635.2255,214.5752l23.1072,2.37
	c0.8887-13.3311,9.1836-21.3297,22.5146-21.3297s21.0334,7.9986,21.0334,21.0334v2.0737l-11.5536,0.5925
	c-24.5884,1.4812-50.0655,11.2573-50.0655,34.0683c0,18.071,14.2198,28.1433,33.1795,28.1433
	c14.2198,0,26.6621-7.4061,30.217-17.4785v15.4048h23.1072v-59.8416c0-28.4396-20.1447-44.7331-45.6218-44.7331
	C655.3702,174.8783,636.7067,190.2831,635.2255,214.5752z M544.5743,228.4988c0-17.7747,11.2573-32.8833,29.6246-32.8833
	c18.071,0,29.3283,14.2198,29.3283,32.8833c0,18.071-11.2573,32.8833-29.3283,32.8833
	C556.4241,261.382,544.5743,245.681,544.5743,228.4988z M519.3934,228.4988c0,30.5133,22.8109,53.028,50.9542,53.028
	c13.0349,0,26.6621-4.7399,32.8833-16.2935v14.2198h23.4034V131.3302H602.046v59.8416
	c-6.2211-11.5536-20.1447-16.2935-31.6983-16.2935C541.0193,174.8783,519.3934,198.578,519.3934,228.4988z M429.9272,228.2025
	c0-17.7747,11.2574-32.2908,28.4396-32.2908c17.4785,0,28.7358,14.516,28.7358,32.2908s-11.2573,32.2908-28.7358,32.2908
	C441.1846,260.4933,429.9272,245.9773,429.9272,228.2025z M404.7463,228.2025c0,31.402,24.8846,53.3242,53.6205,53.3242
	c29.0321,0,53.9167-21.9222,53.9167-53.3242s-24.8846-53.3242-53.9167-53.3242
	C429.631,174.8783,404.7463,196.8005,404.7463,228.2025z M251.5873,198.2817l26.6621,81.1713h29.9208l19.5522-76.4314
	l19.256,76.4314h29.0321l33.772-102.501h-25.7734l-22.5147,77.6164l-18.071-77.6164h-31.6983l-18.071,77.6164l-22.5147-77.6164
	h-38.7687l10.9611-27.2546l-21.6259-8.5911l-13.9236,35.8457h-32.2908v21.3297h24.2921l-5.6287,13.9236
	c-5.3324,13.3311-7.9986,24.5884-7.9986,33.1795c0,21.6259,15.701,36.142,37.9194,36.142c7.9986,0,18.3672-2.37,25.4771-6.2212
	l-5.9249-18.9597c-3.555,1.7775-11.2573,4.4437-16.5898,4.4437c-9.1836,0-16.5898-5.6287-16.5898-16.886
	c0-7.4061,1.7775-14.8123,5.0362-23.4034l8.5911-22.2184H251.5873z"/>
</svg>
