  <svg
    className="nav-main-logo"
    width="144"
    height="30"
    viewBox="0 0 144 30"
    fill="none"
    xmlns="http://www.w3.org/2000/svg"
  >
    <g clipPath="url(#clip0)">
      <path
        d="M103.13 3.41406H88.7642C88.3408 3.41406 88.0586 3.66808 88.0586 4.11967V5.24864C88.0586 5.672 88.3126 5.95424 88.7642 5.95424H94.6066V25.3443C94.6066 25.7394 94.8606 25.9934 95.3122 25.9934H96.5823C96.9775 25.9934 97.2315 25.7394 97.2315 25.3443V5.92602H103.102C103.497 5.92602 103.751 5.672 103.751 5.22041V4.09144C103.78 3.6963 103.525 3.41406 103.13 3.41406Z"
        fill="white"
      />
      <path
        d="M13.8016 15.8045C13.0396 14.9295 11.8542 14.2804 10.3301 13.8288L5.87064 12.5587C5.39083 12.4176 4.91102 12.2482 4.48765 12.0789C4.09251 11.9096 3.75382 11.712 3.47158 11.458C3.21756 11.2322 2.99177 10.9217 2.85065 10.583C2.70953 10.2443 2.62485 9.79274 2.62485 9.2847V8.97423C2.62485 7.98639 2.93532 7.22433 3.52803 6.65985C4.14896 6.09536 5.02391 5.81312 6.15288 5.81312H12.9831C13.4065 5.81312 13.6887 5.5591 13.6887 5.16396V4.06322C13.6887 3.66808 13.4347 3.41406 12.9831 3.41406H5.78597C4.93924 3.41406 4.14896 3.55518 3.47158 3.8092C2.76597 4.06322 2.14504 4.43013 1.63701 4.90995C1.12897 5.38976 0.705606 5.95424 0.423363 6.63162C0.141121 7.28078 0 8.01461 0 8.83311V9.59517C0 10.9499 0.395139 12.0789 1.15719 12.9821C1.91925 13.857 2.99177 14.5062 4.34653 14.9013L8.69306 16.1432C9.28577 16.3125 9.82203 16.5101 10.2736 16.6794C10.7252 16.877 11.0921 17.1028 11.4026 17.3851C11.7131 17.6673 11.9388 17.9778 12.08 18.3729C12.2493 18.768 12.334 19.2479 12.334 19.8123V20.4897C12.334 21.4493 12.0517 22.1832 11.459 22.7477C10.8663 23.3121 9.99137 23.5662 8.86241 23.5662H1.66523C1.24187 23.5662 0.959624 23.8202 0.959624 24.2153V25.3161C0.959624 25.7112 1.21364 25.9652 1.66523 25.9652H9.28577C11.0074 25.9652 12.3904 25.4572 13.4347 24.4693C14.4508 23.4815 14.9871 22.1549 14.9871 20.5744V19.5301C14.9588 17.9495 14.5637 16.6794 13.8016 15.8045Z"
        fill="white"
      />
      <path
        d="M54.4991 3.41406H53.229C52.8057 3.41406 52.5234 3.66808 52.5234 4.11967V25.3161C52.5234 25.7112 52.7775 25.9652 53.229 25.9652H54.4991C54.8943 25.9652 55.1483 25.7112 55.1483 25.3161V4.11967C55.1483 3.6963 54.8943 3.41406 54.4991 3.41406Z"
        fill="white"
      />
      <path
        d="M39.0048 3.41406H37.7347C37.3114 3.41406 37.0291 3.66808 37.0291 4.11967V13.7441C37.0009 13.7441 36.9445 13.7159 36.9162 13.7159H28.7877C28.7594 13.7159 28.7312 13.7159 28.703 13.7159V4.11967C28.703 3.6963 28.449 3.41406 28.0538 3.41406H26.7837C26.3604 3.41406 26.0781 3.66808 26.0781 4.11967V25.3161C26.0781 25.7112 26.3321 25.9652 26.7837 25.9652H28.0538C28.449 25.9652 28.703 25.7112 28.703 25.3161V16.0867H36.888C36.9445 16.0867 36.9727 16.0585 37.0009 16.0585V25.3161C37.0009 25.7112 37.2549 25.9652 37.7065 25.9652H38.9766C39.3717 25.9652 39.6258 25.7112 39.6258 25.3161V4.11967C39.654 3.6963 39.4 3.41406 39.0048 3.41406Z"
        fill="white"
      />
      <path
        d="M77.7569 3.41406H68.6122C68.1889 3.41406 68.0195 3.78098 68.0195 4.20434V25.3161C68.0195 25.7112 68.2735 25.9652 68.7251 25.9652H69.9952C70.3904 25.9652 70.6444 25.7112 70.6444 25.3161V16.0867H76.9102C77.2771 16.0867 77.5029 15.8327 77.5029 15.4376V14.3651C77.5029 13.9699 77.2771 13.7159 76.9102 13.7159H70.6444V5.92602H77.7569C78.152 5.92602 78.406 5.672 78.406 5.22041V4.09144C78.406 3.6963 78.1802 3.41406 77.7569 3.41406Z"
        fill="white"
      />
      <path
        d="M128.165 6.29561L120.037 16.7386C120.009 16.795 119.98 16.8232 119.98 16.8797V18.0651C119.98 18.2062 120.093 18.3191 120.234 18.3191H127.516C127.657 18.3191 127.77 18.432 127.77 18.5731V22.7786C127.77 22.9197 127.883 23.0326 128.024 23.0326H129.577C129.718 23.0326 129.831 22.9197 129.831 22.7786V6.46496C129.831 6.32383 129.718 6.21094 129.577 6.21094H128.391C128.278 6.21094 128.194 6.23916 128.165 6.29561ZM122.718 16.0894L127.291 10.247C127.432 10.0494 127.742 10.1623 127.742 10.3881V16.2305C127.742 16.3717 127.629 16.4846 127.488 16.4846H122.916C122.69 16.4846 122.577 16.2305 122.718 16.0894Z"
        fill="white"
      />
      <path
        d="M126.416 0C118.315 0 111.711 6.60447 111.711 14.7048C111.711 22.8052 118.315 29.4096 126.416 29.4096C134.516 29.4096 141.121 22.8052 141.121 14.7048C141.121 6.60447 134.516 0 126.416 0ZM139.032 14.7048C139.032 21.648 133.387 27.321 126.416 27.321C119.444 27.321 113.8 21.648 113.8 14.7048C113.8 7.76166 119.444 2.08859 126.416 2.08859C133.387 2.08859 139.032 7.76166 139.032 14.7048Z"
        fill="#136EF6"
      />
    </g>
    <defs>
      <clipPath id="clip0">
        <rect width="144" height="29.4096" fill="white" />
      </clipPath>
    </defs>
  </svg>