<svg xmlns="http://www.w3.org/2000/svg" width="166" height="64" aria-hidden="true" data-bbox="0 0 165.301 64" data-type="color" viewBox="0 0 165.301 64"><g fill="#fff" clip-path="url(#a)"><path d="M165.301 0h-9.131a7.637 7.637 0 0 0-6.323 3.352l-12.212 18.014a.82.82 0 0 1-1.356 0L124.068 3.352A7.635 7.635 0 0 0 117.745 0h-9.131l21.753 32.09L108.734 64h9.131a7.637 7.637 0 0 0 6.323-3.352l12.091-17.836a.82.82 0 0 1 1.356 0l12.091 17.836A7.636 7.636 0 0 0 156.05 64h9.131l-21.634-31.91L165.301 0ZM89.828 6.546V64h4.364a6.546 6.546 0 0 0 6.547-6.547V0h-4.364a6.546 6.546 0 0 0-6.547 6.546ZM81.829 0h-3.884a9.154 9.154 0 0 0-8.928 7.126l-8.688 38.192-7.604-35.652C51.318 3.077 44.557-1.367 37.639.544c-4.407 1.217-7.674 4.94-8.627 9.41L21.485 45.27 12.813 7.128A9.162 9.162 0 0 0 3.883 0H0l14.555 63.997h5.514c5.005 0 9.33-3.499 10.373-8.393l9.304-43.664c.115-.542.6-.934 1.153-.934s1.039.392 1.153.934l9.313 43.667a10.603 10.603 0 0 0 10.372 8.39h5.533L81.83 0Z" data-color="1"/></g><defs fill="none"><clipPath id="a"><path fill="#fff" d="M165.305 0v64H0V0h165.305z"/></clipPath></defs></svg>