<svg xmlns="http://www.w3.org/2000/svg" xmlns:xlink="http://www.w3.org/1999/xlink" version="1.1" width="800pt" height="181.491pt" viewBox="0 0 800 181.491">
<defs>
<clipPath id="clip_0">
<path transform="matrix(1,0,0,-1,0,181.491)" d="M0 181.491H800V0H0Z"/>
</clipPath>
</defs>
<g id="layer_1" data-name="Layer">
<g clip-path="url(#clip_0)">
<path transform="matrix(1,0,0,-1,451.5,58.299097)" d="M0 0H-61.281L-66.739-16.547H-45.941L-61.156-62.968H-40.799L-25.604-16.547H-5.437ZM154.662 0 134.018-62.968H154.814L175.459 0ZM41.922-25.386C42.439-21.937 42.15-19.324 41.002-17.505 39.643-15.301 37.057-14.182 33.246-14.182 28.422-14.182 24.418-15.924 21.162-19.448 18.635-22.244 16.49-26.266 14.729-31.522 14.402-32.519 14.096-33.533 13.828-34.587 13.561-35.64 13.33-36.665 13.195-37.65 12.66-41.098 12.947-43.721 14.096-45.541 15.457-47.742 18.061-48.854 21.871-48.854 26.619-48.854 30.604-47.121 33.84-43.626 36.445-40.81 38.609-36.779 40.352-31.522 41.156-29.08 41.674-27.031 41.922-25.386M61.934-27.932C61.705-28.765 61.34-29.962 60.785-31.522 57.377-41.739 51.709-49.812 43.875-55.738 36.043-61.656 26.965-64.615 16.625-64.615 7.775-64.615 1.207-62.326-3.045-57.73-7.314-53.173-8.828-46.882-7.602-38.886-7.295-36.779-6.684-34.318-5.764-31.522-2.412-21.479 3.238-13.444 11.223-7.383 19.172-1.371 28.248 1.666 38.398 1.666 47.264 1.666 53.834-.604 58.086-5.124 62.375-9.633 63.887-15.904 62.662-23.891 62.375-25.768 62.127-27.108 61.934-27.932M254.686 0H230.211L201.754-20.837 208.572 0H188.463L167.838-62.968H187.906L194.496-42.907 202.959-37.737 212.209-62.968H233.889L236.068-59.901 222.264-23.201ZM283.145-41.404 282.512-19.611 267.633-41.404ZM282.664-62.968 282.781-54.647H259.187L253.785-62.968H237.221L236.068-59.901 278.643-.001H299.25L302.83-62.968ZM122.316 0 112.607-29.675C111.688-32.499 111.076-34.989 110.73-37.22L110.578-38.273 109.486-33.36C109.389-32.662 109.332-31.952 109.275-31.226 109.199-30.488 109.084-29.837 108.873-29.254L100.063 0H80.76L60.135-62.968H79.42L89.033-33.457C89.914-30.775 90.525-28.267 90.891-25.911L91.063-24.877C91.33-26.084 91.561-27.223 91.77-28.286 92.383-31.848 92.729-33.716 92.748-33.888L101.691-62.968H120.977L141.619 0ZM-179.814 0H-241.125L-246.553-16.547H-225.756L-240.981-62.968H-220.625L-205.428-16.547H-185.252ZM-88.331 0H-108.659L-129.294-62.968H-79.454L-73.987-46.24H-103.489ZM-337.884 1.734-354.497 17.857-398.372-27.338-353.846-71.854-338.774-56.802-367.098-28.448-367.06-28.41-367.098-28.382ZM-258.983-55.806-238.788-75.999-258.983-96.212-279.187-75.999-279.168-75.991-327.37-27.778-327.312-27.73-327.351-27.692-299.486 1.015-315.803 16.833-359.648-28.382-315.133-72.907-298.63-56.396-278.444-76.598-298.74-96.884-318.608-77.006-337.453-95.859-357.637-75.665-357.608-75.646-405.83-27.434-405.773-27.376-405.792-27.357-358.317 21.563-358.346 21.602-338.458 42.093-318.005 22.234-299.745 41.059-279.627 21.535-259.998 41.758-239.507 21.851-259.395 1.359-276.046 17.522-319.919-27.692-275.396-72.208ZM-164.397-37.909-167.558-47.628H-134.34L-139.339-62.968H-192.961L-172.336 0H-120.025L-124.957-15.063H-156.929L-159.629-23.46H-132.684L-137.443-37.909Z" fill="#0054a6"/>
</g>
</g>
</svg>
