<svg id="e4n3hOPDHS81" xmlns="http://www.w3.org/2000/svg" xmlns:xlink="http://www.w3.org/1999/xlink" viewBox="0 0 300 300" shape-rendering="geometricPrecision" text-rendering="geometricPrecision"><defs><radialGradient id="e4n3hOPDHS82-fill" cx="0" cy="0" r="0.5" spreadMethod="pad" gradientUnits="objectBoundingBox" gradientTransform="translate(0.5 0.5)"><stop id="e4n3hOPDHS82-fill-0" offset="36.2501%" stop-color="#a6f1ff"/><stop id="e4n3hOPDHS82-fill-1" offset="53%" stop-color="#94e8ff"/><stop id="e4n3hOPDHS82-fill-2" offset="66%" stop-color="#91ddff"/><stop id="e4n3hOPDHS82-fill-3" offset="84%" stop-color="#95c3ff"/><stop id="e4n3hOPDHS82-fill-4" offset="100%" stop-color="#052f8e"/></radialGradient><linearGradient id="e4n3hOPDHS82-stroke" x1="0.498682" y1="0.739449" x2="-0.087186" y2="0.452141" spreadMethod="pad" gradientUnits="objectBoundingBox" gradientTransform="translate(0 0)"><stop id="e4n3hOPDHS82-stroke-0" offset="0%" stop-color="#000"/><stop id="e4n3hOPDHS82-stroke-1" offset="100%" stop-color="#fff"/></linearGradient><linearGradient id="e4n3hOPDHS83-fill" x1="0.422164" y1="0.820868" x2="0.498992" y2="-0.326192" spreadMethod="pad" gradientUnits="objectBoundingBox" gradientTransform="translate(0 0)"><stop id="e4n3hOPDHS83-fill-0" offset="0%" stop-color="#5c51b1"/><stop id="e4n3hOPDHS83-fill-1" offset="100%" stop-color="#120f0f"/></linearGradient><linearGradient id="e4n3hOPDHS83-stroke" x1="0.174634" y1="-0.151112" x2="0.291047" y2="0.059375" spreadMethod="pad" gradientUnits="objectBoundingBox" gradientTransform="translate(0 0)"><stop id="e4n3hOPDHS83-stroke-0" offset="0%" stop-color="#fff"/><stop id="e4n3hOPDHS83-stroke-1" offset="100%" stop-color="#000"/></linearGradient><linearGradient id="e4n3hOPDHS84-fill" x1="0.52849" y1="-0.356689" x2="0.514739" y2="1.348395" spreadMethod="pad" gradientUnits="objectBoundingBox" gradientTransform="translate(0 0)"><stop id="e4n3hOPDHS84-fill-0" offset="0%" stop-color="#001878"/><stop id="e4n3hOPDHS84-fill-1" offset="61.9688%" stop-color="#000"/></linearGradient></defs><ellipse rx="95.059219" ry="95.059219" transform="translate(150 128.9504)" fill="url(#e4n3hOPDHS82-fill)" stroke="url(#e4n3hOPDHS82-stroke)" stroke-width="3"/><path d="M62.380365,203.765691h-12.343986Q-0.50126,273.126909,149.74937,273.126909t100.489591-69.361218h-12.632398Q206.95575,254.204518,150,254.204518t-87.619635-50.438827Z" transform="translate(.000002 0.530318)" fill="url(#e4n3hOPDHS83-fill)" stroke="url(#e4n3hOPDHS83-stroke)" stroke-width="3" stroke-linecap="round" stroke-linejoin="round"/><path d="M80.001407,193.668462q-38.080208-7.67776,0,30.402448c38.080209,38.080209,101.352406,38.569738,139.983435-.061291q38.631029-38.631029-4.846523-25.680196-30.377822,25.741487-65.138321,25.741487t-69.998591-30.402448Z" transform="translate(.000004 1.397681)" fill="url(#e4n3hOPDHS84-fill)" stroke-width="4" stroke-linecap="round" stroke-linejoin="round"/><path d="M217.858568,92.071618c5.938603,20.857234,10.561835,41.881388-2.720245,78.822974q15.076433-21.547386,15.076433-41.018292c0-19.470906-19.813852-59.53475-12.356188-37.804682Z" transform="matrix(.898102-.439787 0.439787 0.898102-40.974893 76.227055)" opacity="0.36" fill="#fff" stroke-width="0.6"/></svg>
