<svg id="Layer_2" data-name="Layer 2" xmlns="http://www.w3.org/2000/svg" xmlns:xlink="http://www.w3.org/1999/xlink" viewBox="0 0 197 202"><defs><style>.cls-1{fill:none;}.cls-2{fill:#199ed8;}.cls-3{fill:#52b9dd;}.cls-4{fill:#28a3bf;}.cls-5{fill:url(#linear-gradient);}.cls-6{fill:url(#linear-gradient-2);}.cls-7{fill:url(#linear-gradient-3);}.cls-8{fill:url(#linear-gradient-4);}.cls-9{fill:#0088c4;}.cls-10{fill:#7dd3f9;}</style><linearGradient id="linear-gradient" x1="182.39" y1="129.62" x2="97.99" y2="179.42" gradientUnits="userSpaceOnUse"><stop offset="0" stop-color="#0294b5"/><stop offset="0.39" stop-color="#017e95"/><stop offset="0.77" stop-color="#006d7b"/><stop offset="1" stop-color="#006772"/></linearGradient><linearGradient id="linear-gradient-2" x1="117.16" y1="120.51" x2="94.66" y2="150.23" gradientUnits="userSpaceOnUse"><stop offset="0" stop-color="#0294b5"/><stop offset="0.38" stop-color="#017e95"/><stop offset="0.74" stop-color="#006d7b"/><stop offset="0.97" stop-color="#006772"/></linearGradient><linearGradient id="linear-gradient-3" x1="76.7" y1="129.05" x2="103.83" y2="147.85" gradientUnits="userSpaceOnUse"><stop offset="0" stop-color="#0294b5"/><stop offset="1" stop-color="#006772"/></linearGradient><linearGradient id="linear-gradient-4" x1="35.39" y1="125.49" x2="109.01" y2="193.49" xlink:href="#linear-gradient"/></defs><title>remejai</title><g id="outline"><polygon class="cls-1" points="0 102 99 202 197 101 197 38 149 0 99 37 50 0 0 39 0 102"/></g><polygon class="cls-2" points="149 0 155 51 197 38 149 0"/><polygon class="cls-3" points="155 51 197 101 197 38 155 51"/><polygon class="cls-4" points="155 51 134 135 197 101 155 51"/><polygon class="cls-5" points="134 135 99 202 197 101 134 135"/><polygon class="cls-6" points="134 135 99 87 99 202 134 135"/><polygon class="cls-7" points="99 87 66 136 99 202 99 87"/><polygon class="cls-8" points="66 136 99 202 0 102 66 136"/><polygon class="cls-3" points="66 136 41 50 99 87 66 136"/><polygon class="cls-3" points="41 50 0 102 0 39 41 50"/><polygon class="cls-2" points="0 39 50 0 41 50 0 39"/><polygon class="cls-9" points="41 50 99 37 50 0 41 50"/><polygon class="cls-9" points="99 37 149 0 155 51 99 37"/><polygon class="cls-10" points="99 37 99 87 41 50 99 37"/><polygon class="cls-10" points="155 51 99 87 99 37 155 51"/><polygon class="cls-3" points="134 135 99 87 155 51 134 135"/><polygon class="cls-4" points="0 102 41 50 66 136 0 102"/></svg>